<svg width="793" height="901" viewBox="0 0 793 901" fill="none" xmlns="http://www.w3.org/2000/svg">
<mask id="path-1-outside-1_76_1547" maskUnits="userSpaceOnUse" x="-114.448" y="-0.273438" width="907" height="903" fill="black">
<rect fill="white" x="-114.448" y="-0.273438" width="907" height="903"/>
<path d="M419.096 1.72656V364.187H790.704V542.979L712.072 562.544C555.118 601.599 442.378 739.003 434.73 900.562H259.16V538.103H-112.448V359.311L-33.8164 339.745C123.138 300.69 235.878 163.286 243.525 1.72656H419.096Z"/>
</mask>
<path d="M419.096 1.72656V364.187H790.704V542.979L712.072 562.544C555.118 601.599 442.378 739.003 434.73 900.562H259.16V538.103H-112.448V359.311L-33.8164 339.745C123.138 300.69 235.878 163.286 243.525 1.72656H419.096Z" fill="white"/>
<path d="M419.096 1.72656H420.823V-0.000440121H419.096V1.72656ZM419.096 364.187H417.369V365.914H419.096V364.187ZM790.704 364.187H792.431V362.46H790.704V364.187ZM790.704 542.979L791.121 544.654L792.431 544.328V542.979H790.704ZM712.072 562.544L711.655 560.868V560.868L712.072 562.544ZM434.73 900.562V902.289H436.378L436.456 900.644L434.73 900.562ZM259.16 900.562H257.433V902.289H259.16V900.562ZM259.16 538.103H260.887V536.376H259.16V538.103ZM-112.448 538.103H-114.175V539.83H-112.448V538.103ZM-112.448 359.311L-112.865 357.635L-114.175 357.961V359.311H-112.448ZM-33.8164 339.745L-33.3994 341.421H-33.3994L-33.8164 339.745ZM243.525 1.72656V-0.000440121H241.878L241.8 1.6449L243.525 1.72656ZM419.096 1.72656H417.369V364.187H419.096H420.823V1.72656H419.096ZM419.096 364.187V365.914H790.704V364.187V362.46H419.096V364.187ZM790.704 364.187H788.977V542.979H790.704H792.431V364.187H790.704ZM790.704 542.979L790.287 541.303L711.655 560.868L712.072 562.544L712.489 564.22L791.121 544.654L790.704 542.979ZM712.072 562.544L711.655 560.868C553.96 600.107 440.689 738.159 433.005 900.481L434.73 900.562L436.456 900.644C444.067 739.846 556.275 603.09 712.489 564.22L712.072 562.544ZM434.73 900.562V898.836H259.16V900.562V902.289H434.73V900.562ZM259.16 900.562H260.887V538.103H259.16H257.433V900.562H259.16ZM259.16 538.103V536.376H-112.448V538.103V539.83H259.16V538.103ZM-112.448 538.103H-110.721V359.311H-112.448H-114.175V538.103H-112.448ZM-112.448 359.311L-112.031 360.986L-33.3994 341.421L-33.8164 339.745L-34.2334 338.069L-112.865 357.635L-112.448 359.311ZM-33.8164 339.745L-33.3994 341.421C124.295 302.182 237.567 164.13 245.25 1.80822L243.525 1.72656L241.8 1.6449C234.189 162.443 121.981 299.199 -34.2334 338.069L-33.8164 339.745ZM243.525 1.72656V3.45357H419.096V1.72656V-0.000440121H243.525V1.72656Z" fill="#8E9AAC" mask="url(#path-1-outside-1_76_1547)"/>
</svg>
