<svg width="115" height="70" viewBox="0 0 115 70" fill="none" xmlns="http://www.w3.org/2000/svg">
<path d="M1.41913 10.719H4.29078L5.05878 7.0793H6.36104L5.59304 10.719H8.53148V11.921H5.32591L4.14052 17.5475C4.10713 17.681 4.11826 17.7868 4.17391 17.8647C4.2407 17.9426 4.32417 17.9816 4.42435 17.9816C4.50226 17.9816 4.58574 17.9537 4.67478 17.8981L6.8953 16.3955L7.56313 17.3805L5.34261 18.8831C4.98644 19.1169 4.61913 19.2337 4.2407 19.2337C3.85113 19.2337 3.51722 19.1169 3.23896 18.8831C2.9607 18.6494 2.82157 18.2988 2.82157 17.8313C2.82157 17.7534 2.82713 17.6755 2.83826 17.5976C2.84939 17.5085 2.86609 17.4195 2.88835 17.3304L4.02365 11.921H1.41913V10.719ZM17.3686 14.0915C17.402 13.9357 17.4242 13.8021 17.4353 13.6908C17.4576 13.5683 17.4687 13.4459 17.4687 13.3235C17.4687 12.7447 17.2962 12.3329 16.9512 12.088C16.6173 11.8431 16.1999 11.7207 15.699 11.7207C14.9421 11.7207 14.3133 11.9934 13.8124 12.5388C13.3227 13.073 12.9832 13.791 12.794 14.6925L11.8757 19H10.5901L13.1279 7.0793H14.38L13.3783 11.9544H13.5787C13.8569 11.4313 14.2187 11.0584 14.6639 10.8358C15.1091 10.6021 15.61 10.4852 16.1665 10.4852C16.9011 10.4852 17.5077 10.719 17.9863 11.1864C18.476 11.6428 18.7209 12.2883 18.7209 13.1231C18.7209 13.4793 18.682 13.8355 18.604 14.1917L17.8694 17.681C17.836 17.848 17.9084 17.9315 18.0865 17.9315C18.1533 17.9315 18.22 17.9037 18.2868 17.848L18.938 17.3805L19.6392 18.3656L18.8712 18.9165C18.5707 19.128 18.2312 19.2337 17.8527 19.2337C17.5077 19.2337 17.2016 19.1336 16.9345 18.9332C16.6785 18.7329 16.5505 18.4212 16.5505 17.9983C16.5505 17.8758 16.5672 17.7311 16.6006 17.5642L17.3686 14.0915ZM22.3156 15.2602C22.2933 15.3492 22.2766 15.4494 22.2655 15.5607C22.2543 15.672 22.2488 15.7889 22.2488 15.9113C22.2488 16.5235 22.4269 17.0299 22.783 17.4306C23.1392 17.8202 23.7069 18.015 24.486 18.015C24.8756 18.015 25.2206 17.9704 25.5211 17.8814C25.8328 17.7923 26.0999 17.6699 26.3225 17.5141C26.5451 17.3471 26.7343 17.1635 26.8902 16.9631C27.0571 16.7517 27.1963 16.529 27.3076 16.2953L28.3761 16.8963C28.2203 17.2191 28.0255 17.5252 27.7917 17.8146C27.558 18.0929 27.2797 18.3377 26.957 18.5492C26.6342 18.7607 26.2613 18.9277 25.8383 19.0501C25.4154 19.1725 24.9312 19.2337 24.3858 19.2337C23.885 19.2337 23.423 19.1558 23.0001 19C22.5883 18.8553 22.2321 18.6438 21.9316 18.3656C21.631 18.0762 21.3973 17.7256 21.2303 17.3137C21.0634 16.9019 20.9799 16.4344 20.9799 15.9113C20.9799 15.2101 21.0912 14.5367 21.3138 13.8911C21.5364 13.2344 21.8592 12.6557 22.2822 12.1548C22.7051 11.6539 23.2283 11.2532 23.8516 10.9527C24.4749 10.641 25.1817 10.4852 25.9719 10.4852C26.5284 10.4852 27.0126 10.5743 27.4244 10.7523C27.8363 10.9193 28.1757 11.153 28.4429 11.4536C28.71 11.743 28.9103 12.0769 29.0439 12.4553C29.1775 12.8226 29.2443 13.2066 29.2443 13.6073C29.2443 13.9078 29.2109 14.1972 29.1441 14.4755L28.9604 15.2602H22.3156ZM25.805 11.7207C25.4154 11.7207 25.0481 11.7819 24.703 11.9043C24.3691 12.0157 24.063 12.177 23.7848 12.3885C23.5065 12.6 23.2672 12.8504 23.0669 13.1398C22.8665 13.4181 22.7107 13.7242 22.5994 14.0581H27.9086C27.942 13.88 27.9587 13.713 27.9587 13.5572C27.9587 12.9562 27.7528 12.4998 27.341 12.1882C26.9291 11.8765 26.4171 11.7207 25.805 11.7207Z" fill="white"/>
<path d="M5.45948 41L4.44104 37.0598L3.72313 29.8473H0.834783V27.6435H5.3593L6.46122 32.7023L6.67826 38.7962H7.44626L7.64661 32.7023L8.76522 27.6435H13.273V29.8473H10.3847L9.68348 37.0598L8.56487 41H5.45948ZM0.834783 41V30.6153H3.02191L3.42261 36.8929V41H0.834783ZM10.6852 41V36.8929L11.0859 30.6153H13.273V41H10.6852ZM14.4038 41L16.257 27.6435H20.5812L20.8483 29.8473H18.1102L18.0434 32.9861L17.6594 36.008H18.8114L18.2271 38.2118H17.4257L16.9749 41H14.4038ZM19.8132 41L18.8281 32.9861L18.778 30.6988H20.9151L22.3843 41H19.8132ZM27.855 41L26.8533 36.6257L26.1687 29.8306H23.5141V27.6435H27.638L28.6397 31.9009L29.558 38.7962H32.1792V41H27.855ZM23.5141 41V30.6821H25.4508L25.8014 35.8744L26.0185 41H23.5141ZM30.2258 37.9447L29.8585 33.3701L29.6581 27.6435H32.1792V37.9447H30.2258ZM33.7342 37.8111C33.712 36.1304 33.7008 34.4358 33.7008 32.7273C33.7008 31.0132 33.712 29.3186 33.7342 27.6435H36.2386C36.2163 28.7621 36.2024 29.9141 36.1968 31.0995C36.1968 32.2849 36.1996 33.4703 36.2052 34.6557C36.2163 35.841 36.2274 36.993 36.2386 38.1117C36.2386 38.351 36.2914 38.5485 36.3972 38.7043C36.5085 38.8602 36.6671 38.9743 36.873 39.0466V41.1503C35.7711 41.0835 34.9753 40.7885 34.4855 40.2654C34.0013 39.7423 33.7509 38.9242 33.7342 37.8111ZM37.9749 41.1503V39.0466C38.1753 38.9743 38.3283 38.8602 38.434 38.7043C38.5398 38.543 38.5927 38.3454 38.5927 38.1117C38.6038 36.993 38.6121 35.841 38.6177 34.6557C38.6288 33.4703 38.6316 32.2849 38.626 31.0995C38.626 29.9141 38.6149 28.7621 38.5927 27.6435H41.097C41.1248 29.3186 41.1387 31.0132 41.1387 32.7273C41.1387 34.4358 41.1248 36.1304 41.097 37.8111C41.0803 38.9242 40.8299 39.7423 40.3457 40.2654C39.8615 40.7885 39.0713 41.0835 37.9749 41.1503ZM42.6554 41V27.6435H45.1598V41H42.6554ZM46.2617 35.3068V33.103H48.5991V35.3068H46.2617ZM46.2617 29.8473V27.6435H48.766V29.8473H46.2617ZM49.0994 41L50.9527 27.6435H55.2768L55.544 29.8473H52.8059L52.7391 32.9861L52.3551 36.008H53.5071L52.9227 38.2118H52.1213L51.6706 41H49.0994ZM54.5088 41L53.5238 32.9861L53.4737 30.6988H55.6107L57.08 41H54.5088ZM60.9867 41.1503C59.896 41.0835 59.1057 40.7885 58.616 40.2654C58.1318 39.7423 57.8758 38.9242 57.848 37.8111C57.8368 37.1878 57.8285 36.5896 57.8229 36.0163C57.8173 35.4431 57.8146 34.8783 57.8146 34.3217C57.8146 33.7597 57.8173 33.1892 57.8229 32.6104C57.8285 32.0317 57.8368 31.4278 57.848 30.799C57.8647 29.736 58.1234 28.9374 58.6243 28.4031C59.1307 27.8689 59.9182 27.5656 60.9867 27.4932V29.5885C60.7753 29.6553 60.6167 29.7777 60.5109 29.9558C60.4107 30.1283 60.3579 30.3704 60.3523 30.6821C60.3356 31.2943 60.3217 31.9037 60.3106 32.5103C60.305 33.1169 60.3022 33.7207 60.3022 34.3217C60.3022 34.9228 60.305 35.5238 60.3106 36.1249C60.3217 36.7259 60.3356 37.3325 60.3523 37.9447C60.3579 38.2563 60.4107 38.504 60.5109 38.6877C60.6167 38.8657 60.7753 38.9882 60.9867 39.055V41.1503ZM62.0887 41.1503V39.0633C62.3057 38.991 62.4643 38.8657 62.5645 38.6877C62.6702 38.5096 62.7287 38.2619 62.7398 37.9447C62.7509 37.7054 62.7565 37.4856 62.7565 37.2852C62.762 37.0849 62.762 36.8817 62.7565 36.6758C62.7565 36.4699 62.7509 36.2417 62.7398 35.9913H65.2441C65.2553 36.2584 65.2608 36.5617 65.2608 36.9012C65.2608 37.2407 65.2553 37.544 65.2441 37.8111C65.2163 38.9242 64.9575 39.7423 64.4678 40.2654C63.978 40.7885 63.185 41.0835 62.0887 41.1503ZM62.6563 32.6522C62.6619 32.4463 62.6674 32.232 62.673 32.0094C62.6786 31.7812 62.6813 31.5558 62.6813 31.3332C62.6813 31.105 62.6786 30.888 62.673 30.6821C62.6674 30.3816 62.6173 30.145 62.5227 29.9725C62.4281 29.7944 62.2834 29.6692 62.0887 29.5969V27.4932C63.1238 27.5711 63.889 27.8828 64.3843 28.4282C64.8852 28.9736 65.1495 29.7694 65.1773 30.8157C65.1829 30.9993 65.1857 31.1997 65.1857 31.4167C65.1857 31.6282 65.1829 31.8424 65.1773 32.0595C65.1718 32.271 65.1662 32.4685 65.1607 32.6522H62.6563ZM68.0944 41V30.6153H70.5987V41H68.0944ZM65.7737 29.8473V27.6435H72.9027V29.8473H65.7737ZM73.6962 37.8111C73.6739 36.1304 73.6628 34.4358 73.6628 32.7273C73.6628 31.0132 73.6739 29.3186 73.6962 27.6435H76.2005C76.1783 28.7621 76.1644 29.9141 76.1588 31.0995C76.1588 32.2849 76.1616 33.4703 76.1671 34.6557C76.1783 35.841 76.1894 36.993 76.2005 38.1117C76.2005 38.351 76.2534 38.5485 76.3591 38.7043C76.4704 38.8602 76.629 38.9743 76.835 39.0466V41.1503C75.733 41.0835 74.9372 40.7885 74.4475 40.2654C73.9633 39.7423 73.7129 38.9242 73.6962 37.8111ZM77.9369 41.1503V39.0466C78.1372 38.9743 78.2903 38.8602 78.396 38.7043C78.5017 38.543 78.5546 38.3454 78.5546 38.1117C78.5657 36.993 78.5741 35.841 78.5797 34.6557C78.5908 33.4703 78.5936 32.2849 78.588 31.0995C78.588 29.9141 78.5769 28.7621 78.5546 27.6435H81.059C81.0868 29.3186 81.1007 31.0132 81.1007 32.7273C81.1007 34.4358 81.0868 36.1304 81.059 37.8111C81.0423 38.9242 80.7918 39.7423 80.3077 40.2654C79.8235 40.7885 79.0332 41.0835 77.9369 41.1503ZM87.4758 41L86.2237 36.4922H86.207V34.2883H86.2237C86.5743 34.2883 86.8386 34.2077 87.0167 34.0463C87.1948 33.8849 87.2922 33.6595 87.3089 33.3701C87.3256 33.0974 87.3367 32.8136 87.3423 32.5186C87.3478 32.2181 87.3478 31.9203 87.3423 31.6254C87.3367 31.3249 87.3256 31.0383 87.3089 30.7656C87.2922 30.4706 87.1948 30.2452 87.0167 30.0894C86.8386 29.928 86.5743 29.8473 86.2237 29.8473H86.207V27.6435H86.2237C87.4703 27.6435 88.369 27.8967 88.92 28.4031C89.4765 28.904 89.7743 29.736 89.8132 30.8991C89.8243 31.2108 89.8299 31.4835 89.8299 31.7172C89.8355 31.951 89.8355 32.1847 89.8299 32.4184C89.8299 32.6522 89.8243 32.9249 89.8132 33.2365C89.7631 34.6278 89.329 35.5572 88.511 36.0247L90.0803 41H87.4758ZM82.6174 41V27.6435H85.1217V41H82.6174ZM91.3891 41V27.6435H93.8935V41H91.3891ZM99.9039 41L98.9022 36.6257L98.2177 29.8306H95.563V27.6435H99.6869L100.689 31.9009L101.607 38.7962H104.228V41H99.9039ZM95.563 41V30.6821H97.4997L97.8504 35.8744L98.0674 41H95.563ZM102.275 37.9447L101.907 33.3701L101.707 27.6435H104.228V37.9447H102.275ZM108.922 41.1503C107.848 41.0835 107.066 40.7885 106.576 40.2654C106.086 39.7367 105.822 38.9186 105.783 37.8111C105.766 37.3437 105.753 36.8122 105.741 36.2167C105.736 35.6157 105.733 34.9979 105.733 34.3635C105.733 33.729 105.736 33.1169 105.741 32.527C105.753 31.937 105.766 31.4167 105.783 30.9659C105.828 29.8195 106.095 28.9736 106.585 28.4282C107.074 27.8772 107.853 27.5656 108.922 27.4932V29.5802C108.716 29.6358 108.563 29.7416 108.463 29.8974C108.363 30.0477 108.304 30.2536 108.287 30.5151C108.254 31.0995 108.229 31.7144 108.212 32.36C108.196 33 108.187 33.6511 108.187 34.3134C108.187 34.9757 108.196 35.6296 108.212 36.2751C108.229 36.9151 108.254 37.5273 108.287 38.1117C108.304 38.3788 108.363 38.5903 108.463 38.7461C108.563 38.8963 108.716 39.0021 108.922 39.0633V41.1503ZM110.024 41.1503V39.0717C110.246 39.0104 110.413 38.9047 110.525 38.7544C110.636 38.5986 110.703 38.3843 110.725 38.1117C110.736 37.9837 110.742 37.8306 110.742 37.6525C110.747 37.4689 110.747 37.288 110.742 37.1099C110.742 36.9263 110.736 36.7704 110.725 36.6424H109.807V34.472H113.163C113.19 34.9784 113.202 35.535 113.196 36.1416C113.19 36.7426 113.174 37.2991 113.146 37.8111C113.09 38.9186 112.82 39.7339 112.336 40.257C111.852 40.7802 111.081 41.0779 110.024 41.1503ZM110.608 32.6522C110.625 32.2849 110.633 31.9287 110.633 31.5837C110.633 31.2386 110.625 30.8824 110.608 30.5151C110.591 30.2591 110.536 30.056 110.441 29.9057C110.352 29.7555 110.213 29.6497 110.024 29.5885V27.4932C111.053 27.5656 111.807 27.8633 112.286 28.3864C112.765 28.904 113.04 29.7137 113.113 30.8157C113.129 31.0717 113.138 31.3777 113.138 31.7339C113.138 32.0845 113.129 32.3906 113.113 32.6522H110.608Z" fill="white"/>
<path d="M1.28557 67.3391H0L2.18713 56.9711C2.20939 56.8487 2.19826 56.7652 2.15374 56.7207C2.10922 56.665 2.04243 56.6372 1.95339 56.6372C1.89774 56.6372 1.84765 56.6539 1.80313 56.6873L0.88487 57.3217L0.217043 56.3367L1.00174 55.8024C1.31339 55.591 1.65287 55.4852 2.02017 55.4852C2.46539 55.4852 2.816 55.6077 3.072 55.8525C3.33913 56.0974 3.4727 56.4536 3.4727 56.921V57.0212H3.67304C4.00696 56.5203 4.40765 56.1419 4.87513 55.8859C5.35374 55.6188 5.92139 55.4852 6.57809 55.4852C7.03444 55.4852 7.45183 55.5687 7.83026 55.7357C8.21983 55.8915 8.54817 56.1141 8.8153 56.4035C9.09357 56.6817 9.31061 57.0212 9.46644 57.4219C9.62226 57.8115 9.70017 58.2344 9.70017 58.6908C9.70017 59.4254 9.6 60.1266 9.39965 60.7944C9.21043 61.4623 8.92104 62.0522 8.53148 62.5642C8.14191 63.0762 7.65774 63.4824 7.07896 63.783C6.50017 64.0835 5.82122 64.2337 5.04209 64.2337C4.41878 64.2337 3.87896 64.0946 3.42261 63.8163C2.97739 63.527 2.66017 63.1652 2.47096 62.7311H2.27061L1.28557 67.3391ZM4.87513 62.9983C5.42052 62.9983 5.9047 62.887 6.32765 62.6643C6.76174 62.4417 7.12348 62.1468 7.41287 61.7795C7.71339 61.401 7.936 60.967 8.0807 60.4772C8.23652 59.9875 8.31444 59.481 8.31444 58.9579C8.31444 58.2233 8.11965 57.6668 7.73009 57.2883C7.35165 56.9099 6.84522 56.7207 6.21078 56.7207C5.69878 56.7207 5.2313 56.8376 4.80835 57.0713C4.39652 57.305 4.04035 57.6111 3.73983 57.9896C3.4393 58.368 3.20557 58.7965 3.03861 59.2751C2.87165 59.7537 2.78817 60.2435 2.78817 60.7443C2.78817 61.4567 2.97183 62.0132 3.33913 62.4139C3.70643 62.8035 4.21843 62.9983 4.87513 62.9983ZM13.4618 57.1548C13.4952 57.0212 13.4785 56.921 13.4117 56.8543C13.3449 56.7763 13.2614 56.7374 13.1613 56.7374C13.0722 56.7374 12.9887 56.7652 12.9108 56.8209L11.3915 57.856L10.7237 56.871L12.2096 55.8692C12.588 55.6132 12.972 55.4852 13.3616 55.4852C13.7067 55.4852 14.0072 55.5854 14.2632 55.7857C14.5192 55.975 14.6639 56.2866 14.6973 56.7207H14.8976C15.2204 56.2643 15.5821 55.9471 15.9828 55.769C16.3835 55.5798 16.8009 55.4852 17.235 55.4852C18.0364 55.4852 18.6653 55.719 19.1216 56.1864C19.578 56.6428 19.8061 57.2494 19.8061 58.0063C19.8061 58.2957 19.7727 58.5906 19.706 58.8911L18.2868 58.9913C18.3425 58.713 18.3703 58.4793 18.3703 58.2901C18.3703 57.7558 18.22 57.3607 17.9195 57.1047C17.6301 56.8487 17.2517 56.7207 16.7842 56.7207C16.4503 56.7207 16.1442 56.7875 15.866 56.921C15.5988 57.0435 15.3651 57.216 15.1647 57.4386C14.9644 57.6501 14.7919 57.9005 14.6472 58.1899C14.5136 58.4793 14.4134 58.7798 14.3467 59.0915L13.562 62.7979H15.532V64H10.2228V62.7979H12.2597L13.4618 57.1548ZM25.9385 55.4852C26.4171 55.4852 26.8623 55.5687 27.2742 55.7357C27.686 55.9026 28.0422 56.1363 28.3427 56.4369C28.6432 56.7374 28.877 57.0991 29.0439 57.5221C29.222 57.9339 29.311 58.3903 29.311 58.8911C29.311 59.5812 29.1942 60.249 28.9604 60.8946C28.7378 61.529 28.4039 62.0967 27.9587 62.5976C27.5246 63.0873 26.9848 63.4824 26.3392 63.783C25.7048 64.0835 24.9813 64.2337 24.1688 64.2337C23.7013 64.2337 23.2617 64.1558 22.8498 64C22.438 63.833 22.0763 63.6049 21.7646 63.3155C21.4641 63.0261 21.2248 62.6755 21.0467 62.2637C20.8686 61.8407 20.7796 61.3732 20.7796 60.8612C20.7796 60.0598 20.9131 59.3308 21.1803 58.6741C21.4585 58.0063 21.8314 57.4386 22.2989 56.9711C22.7775 56.5037 23.3284 56.1419 23.9517 55.8859C24.575 55.6188 25.2373 55.4852 25.9385 55.4852ZM24.4526 62.9983C24.9646 62.9983 25.4377 62.887 25.8717 62.6643C26.3058 62.4306 26.6787 62.1301 26.9903 61.7628C27.302 61.3843 27.5413 60.9558 27.7083 60.4772C27.8863 59.9986 27.9754 59.5033 27.9754 58.9913C27.9754 58.3346 27.7695 57.7948 27.3577 57.3718C26.957 56.9377 26.3893 56.7207 25.6547 56.7207C25.1761 56.7207 24.7253 56.8264 24.3023 57.0379C23.8794 57.2494 23.5065 57.5388 23.1837 57.9061C22.8721 58.2734 22.6217 58.7019 22.4324 59.1917C22.2432 59.6703 22.1486 60.1823 22.1486 60.7277C22.1486 61.3955 22.349 61.9409 22.7497 62.3638C23.1503 62.7868 23.718 62.9983 24.4526 62.9983ZM36.6956 53.248C36.6956 52.9252 36.8069 52.6525 37.0295 52.4299C37.2633 52.1962 37.5415 52.0793 37.8643 52.0793C38.1871 52.0793 38.4598 52.1962 38.6824 52.4299C38.9161 52.6525 39.033 52.9252 39.033 53.248C39.033 53.5708 38.9161 53.849 38.6824 54.0828C38.4598 54.3054 38.1871 54.4167 37.8643 54.4167C37.5415 54.4167 37.2633 54.3054 37.0295 54.0828C36.8069 53.849 36.6956 53.5708 36.6956 53.248ZM35.9443 66.0369C35.8664 66.4153 35.6827 66.727 35.3933 66.9718C35.104 67.2167 34.77 67.3391 34.3916 67.3391H30.6685V66.137H34.1746C34.4751 66.137 34.6587 65.9701 34.7255 65.6362L36.5453 57.1214C36.5676 56.999 36.5509 56.9099 36.4953 56.8543C36.4396 56.7875 36.3728 56.7541 36.2949 56.7541C36.2281 56.7541 36.1613 56.7763 36.0946 56.8209L34.1412 58.1565L33.4733 57.1715L35.4434 55.8358C35.7885 55.6021 36.1391 55.4852 36.4953 55.4852C36.8626 55.4852 37.1798 55.6132 37.4469 55.8692C37.714 56.1141 37.8476 56.448 37.8476 56.871C37.8476 56.9934 37.8309 57.1381 37.7975 57.305L35.9443 66.0369ZM42.7612 60.2602C42.739 60.3492 42.7223 60.4494 42.7111 60.5607C42.7 60.672 42.6944 60.7889 42.6944 60.9113C42.6944 61.5235 42.8725 62.0299 43.2287 62.4306C43.5849 62.8202 44.1525 63.015 44.9317 63.015C45.3212 63.015 45.6663 62.9704 45.9668 62.8814C46.2784 62.7923 46.5456 62.6699 46.7682 62.5141C46.9908 62.3471 47.18 62.1635 47.3358 61.9631C47.5028 61.7517 47.6419 61.529 47.7532 61.2953L48.8217 61.8963C48.6659 62.2191 48.4711 62.5252 48.2374 62.8146C48.0037 63.0929 47.7254 63.3377 47.4026 63.5492C47.0798 63.7607 46.707 63.9277 46.284 64.0501C45.861 64.1725 45.3769 64.2337 44.8315 64.2337C44.3306 64.2337 43.8687 64.1558 43.4457 64C43.0339 63.8553 42.6777 63.6438 42.3772 63.3656C42.0767 63.0762 41.843 62.7256 41.676 62.3137C41.509 61.9019 41.4256 61.4344 41.4256 60.9113C41.4256 60.2101 41.5369 59.5367 41.7595 58.8911C41.9821 58.2344 42.3049 57.6557 42.7278 57.1548C43.1508 56.6539 43.6739 56.2532 44.2972 55.9527C44.9205 55.641 45.6273 55.4852 46.4176 55.4852C46.9741 55.4852 47.4583 55.5743 47.8701 55.7523C48.2819 55.9193 48.6214 56.153 48.8885 56.4536C49.1557 56.743 49.356 57.0769 49.4896 57.4553C49.6231 57.8226 49.6899 58.2066 49.6899 58.6073C49.6899 58.9078 49.6565 59.1972 49.5897 59.4755L49.4061 60.2602H42.7612ZM46.2506 56.7207C45.861 56.7207 45.4937 56.7819 45.1487 56.9043C44.8148 57.0157 44.5087 57.177 44.2304 57.3885C43.9522 57.6 43.7129 57.8504 43.5125 58.1398C43.3122 58.4181 43.1563 58.7242 43.045 59.0581H48.3543C48.3877 58.88 48.4043 58.713 48.4043 58.5572C48.4043 57.9562 48.1984 57.4998 47.7866 57.1882C47.3748 56.8765 46.8628 56.7207 46.2506 56.7207ZM59.6289 61.1617C59.4842 61.5847 59.2839 61.9854 59.0279 62.3638C58.7719 62.7311 58.4491 63.0539 58.0595 63.3322C57.6811 63.6104 57.2359 63.833 56.7239 64C56.223 64.1558 55.6553 64.2337 55.0209 64.2337C54.4978 64.2337 54.0192 64.1558 53.5851 64C53.1621 63.833 52.8004 63.5993 52.4999 63.2988C52.1993 62.9983 51.9656 62.6365 51.7986 62.2136C51.6317 61.7906 51.5482 61.3176 51.5482 60.7944C51.5482 60.071 51.6706 59.3864 51.9155 58.7409C52.1715 58.0953 52.5277 57.5332 52.984 57.0546C53.4404 56.5649 53.9913 56.1809 54.6369 55.9026C55.2825 55.6243 56.0004 55.4852 56.7906 55.4852C57.3026 55.4852 57.7646 55.5576 58.1764 55.7023C58.5882 55.847 58.9388 56.0529 59.2282 56.32C59.5176 56.576 59.7402 56.8877 59.896 57.255C60.0519 57.6111 60.1298 58.0063 60.1298 58.4403C60.1298 58.4626 60.1298 58.4904 60.1298 58.5238C60.1298 58.5461 60.1242 58.6017 60.1131 58.6908L58.7774 58.8911C58.7886 58.8243 58.7941 58.7743 58.7941 58.7409C58.7941 58.7075 58.7941 58.6685 58.7941 58.624C58.7941 58.3569 58.7496 58.112 58.6606 57.8894C58.5827 57.6557 58.4491 57.4553 58.2599 57.2883C58.0818 57.1103 57.848 56.9711 57.5586 56.871C57.2804 56.7708 56.9465 56.7207 56.5569 56.7207C56.0338 56.7207 55.5496 56.8264 55.1044 57.0379C54.6703 57.2494 54.2863 57.5388 53.9524 57.9061C53.6296 58.2623 53.3736 58.6797 53.1844 59.1583C53.0063 59.6369 52.9173 60.1377 52.9173 60.6609C52.9173 61.4511 53.1287 62.041 53.5517 62.4306C53.9747 62.809 54.5534 62.9983 55.288 62.9983C55.7333 62.9983 56.1284 62.937 56.4734 62.8146C56.8185 62.681 57.119 62.5141 57.375 62.3137C57.631 62.1023 57.8425 61.863 58.0094 61.5958C58.1764 61.3287 58.3044 61.0504 58.3934 60.761L59.6289 61.1617ZM62.7561 55.719H65.6277L66.3957 52.0793H67.698L66.93 55.719H69.8684V56.921H66.6629L65.4775 62.5475C65.4441 62.681 65.4552 62.7868 65.5109 62.8647C65.5777 62.9426 65.6611 62.9816 65.7613 62.9816C65.8392 62.9816 65.9227 62.9537 66.0117 62.8981L68.2323 61.3955L68.9001 62.3805L66.6796 63.8831C66.3234 64.1169 65.9561 64.2337 65.5777 64.2337C65.1881 64.2337 64.8542 64.1169 64.5759 63.8831C64.2977 63.6494 64.1585 63.2988 64.1585 62.8313C64.1585 62.7534 64.1641 62.6755 64.1752 62.5976C64.1863 62.5085 64.203 62.4195 64.2253 62.3304L65.3606 56.921H62.7561V55.719Z" fill="white"/>
</svg>
