<svg width="490" height="488" viewBox="0 0 490 488" fill="none" xmlns="http://www.w3.org/2000/svg">
<mask id="path-1-outside-1_136_620" maskUnits="userSpaceOnUse" x="0" y="0" width="490" height="488" fill="black">
<rect fill="white" width="490" height="488"/>
<path d="M288.046 1V196.735H488.722V293.287L446.259 303.853C361.5 324.943 300.618 399.145 296.488 486.391H201.676V290.654H1V194.103L43.4629 183.537C128.222 162.447 189.103 88.2456 193.233 1H288.046Z"/>
</mask>
<path d="M288.046 1V196.735H488.722V293.287L446.259 303.853C361.5 324.943 300.618 399.145 296.488 486.391H201.676V290.654H1V194.103L43.4629 183.537C128.222 162.447 189.103 88.2456 193.233 1H288.046Z" fill="black" fill-opacity="0.01"/>
<path d="M288.046 1H289.046V0H288.046V1ZM288.046 196.735H287.046V197.735H288.046V196.735ZM488.722 196.735H489.722V195.735H488.722V196.735ZM488.722 293.287L488.963 294.258L489.722 294.069V293.287H488.722ZM446.259 303.853L446.017 302.882V302.882L446.259 303.853ZM296.488 486.391V487.391H297.442L297.487 486.438L296.488 486.391ZM201.676 486.391H200.676V487.391H201.676V486.391ZM201.676 290.654H202.676V289.654H201.676V290.654ZM1 290.654H0V291.654H1V290.654ZM1 194.103L0.758546 193.132L0 193.321V194.103H1ZM43.4629 183.537L43.7043 184.508H43.7044L43.4629 183.537ZM193.233 1V0H192.28L192.235 0.952714L193.233 1ZM288.046 1H287.046V196.735H288.046H289.046V1H288.046ZM288.046 196.735V197.735H488.722V196.735V195.735H288.046V196.735ZM488.722 196.735H487.722V293.287H488.722H489.722V196.735H488.722ZM488.722 293.287L488.48 292.317L446.017 302.882L446.259 303.853L446.5 304.823L488.963 294.258L488.722 293.287ZM446.259 303.853L446.017 302.882C360.83 324.079 299.64 398.656 295.489 486.343L296.488 486.391L297.487 486.438C301.596 399.633 362.17 325.807 446.5 304.823L446.259 303.853ZM296.488 486.391V485.391H201.676V486.391V487.391H296.488V486.391ZM201.676 486.391H202.676V290.654H201.676H200.676V486.391H201.676ZM201.676 290.654V289.654H1V290.654V291.654H201.676V290.654ZM1 290.654H2V194.103H1H0V290.654H1ZM1 194.103L1.24145 195.073L43.7043 184.508L43.4629 183.537L43.2214 182.567L0.758546 193.132L1 194.103ZM43.4629 183.537L43.7044 184.508C128.892 163.311 190.081 88.7341 194.232 1.04729L193.233 1L192.235 0.952714C188.125 87.7571 127.552 161.583 43.2214 182.567L43.4629 183.537ZM193.233 1V2H288.046V1V0H193.233V1Z" fill="url(#paint0_linear_136_620)" mask="url(#path-1-outside-1_136_620)"/>
<defs>
<linearGradient id="paint0_linear_136_620" x1="194.445" y1="200.481" x2="369.701" y2="579.804" gradientUnits="userSpaceOnUse">
<stop stop-color="white" stop-opacity="0.6"/>
<stop offset="1" stop-color="#E4E4E4" stop-opacity="0"/>
</linearGradient>
</defs>
</svg>
