<svg width="181" height="47" viewBox="0 0 181 47" fill="none" xmlns="http://www.w3.org/2000/svg">
<g clip-path="url(#clip0_265_29861)">
<path d="M161.806 36.1401L161.181 36.4404L161.773 36.0566C161.773 36.0566 161.798 36.115 161.806 36.1401Z" fill="white"/>
<path d="M0 1.90039V9.70866H13.9564V46.1723H22.3153V9.70866H36.2717V1.90039H0ZM77.9826 1.90039L63.3504 31.2898L48.7183 1.90039H41.2187V46.1723H49.0269V19.7359L61.8739 46.1723H64.827L77.6739 19.7359V46.1723H85.4822V1.90039H77.9826ZM126.734 9.80042C125.933 7.77328 124.682 6.08816 122.98 4.76175C121.303 3.42701 119.134 2.55942 116.49 2.15066C115.914 2.05055 115.264 1.98381 114.521 1.96713C113.804 1.92542 113.228 1.90873 112.803 1.90873H94.108V46.1806H102.467V31.1814H112.794C113.203 31.1814 113.779 31.1647 114.513 31.123C115.247 31.0813 115.906 31.0229 116.482 30.9395C119.101 30.5307 121.253 29.6548 122.939 28.3284C124.64 26.9936 125.892 25.3252 126.692 23.3147C127.51 21.2876 127.919 19.0352 127.919 16.5492C127.919 14.0633 127.518 11.8276 126.718 9.81711L126.734 9.80042ZM119.143 19.0853C118.918 19.9695 118.5 20.7787 117.883 21.5128C117.266 22.2303 116.398 22.7391 115.272 23.0478C114.838 23.1729 114.371 23.2563 113.862 23.2897C113.353 23.3314 112.878 23.3481 112.444 23.3481H102.484V9.70866H112.444C112.878 9.70866 113.345 9.72534 113.862 9.76706C114.371 9.80877 114.847 9.89219 115.272 10.009C116.398 10.3176 117.274 10.8432 117.883 11.5773C118.5 12.2947 118.918 13.1039 119.143 14.0049C119.385 14.8891 119.51 15.7234 119.51 16.5242C119.51 17.3251 119.385 18.176 119.143 19.0769V19.0853Z" fill="white"/>
<path d="M154.847 12.2955C154.83 12.2287 154.814 12.1537 154.797 12.0869C154.805 12.1203 154.814 12.1537 154.822 12.1787C154.83 12.2204 154.839 12.2538 154.847 12.2955Z" fill="white"/>
<path d="M138.571 19.298L155.364 17.6212L155.673 17.5878L165.842 16.5701C165.842 16.2531 165.825 15.9444 165.808 15.6357L157.75 16.4449L155.331 16.6869L146.438 17.5795L138.58 19.3063L138.571 19.298Z" fill="white"/>
<path d="M175.244 15.6173L172.642 15.8843V0.0341797H173.684L175.244 15.6173Z" fill="white"/>
<path d="M165.834 16.5671C165.834 16.2501 165.818 15.9415 165.801 15.6328L157.743 16.442L155.323 16.6839L146.431 17.5765C145.104 17.8018 143.861 18.027 142.702 18.2689C141.183 18.5776 139.807 18.928 138.581 19.3034C138.047 19.4702 137.538 19.6371 137.062 19.8122C134.777 20.6548 132.941 21.7059 131.573 22.9656C130.23 24.2002 129.254 25.6351 128.653 27.2701C128.044 28.9052 127.744 30.7071 127.744 32.6759C127.744 35.045 128.286 37.214 129.363 39.1911C130.464 41.1348 132.074 42.7031 134.176 43.8877C136.303 45.0473 138.898 45.6229 141.951 45.6229C145.63 45.6229 148.675 44.9889 151.069 43.7292C152.979 42.7115 154.781 41.2016 156.475 39.2078V44.4383H165.868V18.3941C165.868 17.7684 165.868 17.1678 165.843 16.5755L165.834 16.5671ZM153.096 33.6436L151.503 34.0356C148.324 34.8281 146.047 37.6061 145.888 40.8762H142.335V33.5434H134.818V29.9229L136.412 29.5309C139.59 28.7384 141.867 25.9604 142.026 22.6903H145.58V30.0231H153.096V33.6436Z" fill="white"/>
<path d="M154.847 12.2955C154.83 12.2287 154.814 12.1537 154.797 12.0869C154.805 12.1203 154.814 12.1537 154.822 12.1787C154.83 12.2204 154.839 12.2538 154.847 12.2955Z" fill="white"/>
<path d="M181 0.0341797H172.642V45.2237H181V0.0341797Z" fill="white"/>
<path d="M165.843 12.4465L159.128 13.3475C159.128 10.3109 156.442 6.93234 153.397 6.93234H149.067V0H153.397C160.263 0 165.843 5.58091 165.843 12.4465Z" fill="white"/>
</g>
<defs>
<clipPath id="clip0_265_29861">
<rect width="181" height="46.1656" fill="white"/>
</clipPath>
</defs>
</svg>
