<svg width="60" height="60" viewBox="0 0 60 60" fill="none" xmlns="http://www.w3.org/2000/svg">
<path d="M41.9063 35.4082C41.9932 35.495 42.0621 35.5981 42.1092 35.7116C42.1562 35.825 42.1804 35.9467 42.1804 36.0695C42.1804 36.1924 42.1562 36.314 42.1092 36.4275C42.0621 36.541 41.9932 36.6441 41.9063 36.7309L36.2973 42.3399C36.1219 42.5153 35.884 42.6139 35.6359 42.6139C35.3878 42.6139 35.1499 42.5153 34.9745 42.3399C34.7991 42.1645 34.7005 41.9266 34.7005 41.6785C34.7005 41.4304 34.7991 41.1925 34.9745 41.0171L39.9221 36.0695L34.9745 31.122C34.8876 31.0351 34.8187 30.932 34.7717 30.8185C34.7247 30.705 34.7005 30.5834 34.7005 30.4606C34.7005 30.3377 34.7247 30.2161 34.7717 30.1026C34.8187 29.9891 34.8876 29.886 34.9745 29.7992C35.0614 29.7123 35.1645 29.6434 35.2779 29.5964C35.3914 29.5494 35.5131 29.5252 35.6359 29.5252C35.7587 29.5252 35.8804 29.5494 35.9938 29.5964C36.1073 29.6434 36.2104 29.7123 36.2973 29.7992L41.9063 35.4082ZM25.0793 29.7992C24.9925 29.7123 24.8894 29.6433 24.7759 29.5963C24.6624 29.5492 24.5408 29.525 24.4179 29.525C24.2951 29.525 24.1734 29.5492 24.06 29.5963C23.9465 29.6433 23.8434 29.7123 23.7566 29.7992L18.1476 35.4082C18.0607 35.495 17.9917 35.5981 17.9447 35.7116C17.8976 35.825 17.8734 35.9467 17.8734 36.0695C17.8734 36.1924 17.8976 36.314 17.9447 36.4275C17.9917 36.541 18.0607 36.6441 18.1476 36.7309L23.7566 42.3399C23.8434 42.4268 23.9465 42.4957 24.06 42.5427C24.1735 42.5897 24.2951 42.6139 24.4179 42.6139C24.5408 42.6139 24.6624 42.5897 24.7759 42.5427C24.8894 42.4957 24.9925 42.4268 25.0793 42.3399C25.1662 42.2531 25.2351 42.1499 25.2821 42.0365C25.3291 41.923 25.3533 41.8013 25.3533 41.6785C25.3533 41.5557 25.3291 41.4341 25.2821 41.3206C25.2351 41.2071 25.1662 41.104 25.0793 41.0171L20.1318 36.0695L25.0793 31.122C25.1663 31.0351 25.2352 30.932 25.2822 30.8186C25.3293 30.7051 25.3535 30.5834 25.3535 30.4606C25.3535 30.3377 25.3293 30.2161 25.2822 30.1026C25.2352 29.9891 25.1663 29.886 25.0793 29.7992ZM49.6583 21.1123V51.0268C49.6583 51.7706 49.3629 52.4839 48.8369 53.0099C48.311 53.5358 47.5976 53.8313 46.8538 53.8313H13.2C12.4562 53.8313 11.7429 53.5358 11.2169 53.0099C10.691 52.4839 10.3955 51.7706 10.3955 51.0268V9.89433C10.3955 9.15053 10.691 8.4372 11.2169 7.91126C11.7429 7.38532 12.4562 7.08984 13.2 7.08984H35.6359C35.7587 7.08975 35.8803 7.11385 35.9938 7.16076C36.1073 7.20768 36.2104 7.2765 36.2973 7.36328L49.3849 20.4509C49.4717 20.5378 49.5405 20.6409 49.5874 20.7544C49.6343 20.8679 49.6584 20.9895 49.6583 21.1123ZM36.5707 20.1774H46.4659L36.5707 10.2799V20.1774ZM47.7887 51.0268V22.0471H35.6359C35.388 22.0471 35.1502 21.9486 34.9749 21.7733C34.7996 21.598 34.7011 21.3602 34.7011 21.1123V8.9595H13.2C12.9521 8.9595 12.7143 9.05799 12.539 9.23331C12.3637 9.40862 12.2652 9.6464 12.2652 9.89433V51.0268C12.2652 51.2747 12.3637 51.5125 12.539 51.6878C12.7143 51.8631 12.9521 51.9616 13.2 51.9616H46.8538C47.1018 51.9616 47.3396 51.8631 47.5149 51.6878C47.6902 51.5125 47.7887 51.2747 47.7887 51.0268Z" fill="#FE1116"/>
</svg>
