<svg width="60" height="60" viewBox="0 0 60 60" fill="none" xmlns="http://www.w3.org/2000/svg">
<path d="M52.5778 18.3532L42.1335 7.90885C41.8729 7.64739 41.5633 7.43994 41.2224 7.2984C40.8815 7.15685 40.5161 7.08398 40.147 7.08398C39.7778 7.08398 39.4124 7.15685 39.0715 7.2984C38.7306 7.43994 38.421 7.64739 38.1604 7.90885L9.34668 36.7296C8.82144 37.2554 8.5264 37.9683 8.52637 38.7115V49.1558C8.52637 49.8996 8.82184 50.613 9.34778 51.1389C9.87373 51.6648 10.5871 51.9603 11.3309 51.9603H50.5937C50.8416 51.9603 51.0794 51.8618 51.2547 51.6865C51.43 51.5112 51.5285 51.2734 51.5285 51.0255C51.5285 50.7776 51.43 50.5398 51.2547 50.3645C51.0794 50.1892 50.8416 50.0907 50.5937 50.0907H24.8064L52.5778 22.3192C53.1038 21.7933 53.3992 21.08 53.3992 20.3362C53.3992 19.5925 53.1038 18.8792 52.5778 18.3532ZM22.1608 50.0907H11.3309C11.0829 50.0907 10.8451 49.9922 10.6698 49.8169C10.4945 49.6415 10.396 49.4038 10.396 49.1558V38.7115C10.3964 38.4643 10.4948 38.2273 10.6695 38.0524L31.8971 16.8248L43.6643 28.5896L22.1608 50.0907ZM51.2551 20.9965L44.9847 27.2668L33.2199 15.502L39.4902 9.23163C39.5771 9.14471 39.6802 9.07576 39.7936 9.02871C39.9071 8.98167 40.0288 8.95746 40.1516 8.95746C40.2745 8.95746 40.3961 8.98167 40.5096 9.02871C40.6231 9.07576 40.7262 9.14471 40.813 9.23163L51.2551 19.676C51.4299 19.8513 51.5281 20.0887 51.5281 20.3362C51.5281 20.5838 51.4299 20.8212 51.2551 20.9965Z" fill="#FE1116"/>
</svg>
