<svg width="1143" height="1138" viewBox="0 0 1143 1138" fill="none" xmlns="http://www.w3.org/2000/svg">
<mask id="path-1-outside-1_76_710" maskUnits="userSpaceOnUse" x="0" y="0" width="1143" height="1138" fill="black">
<rect fill="white" width="1143" height="1138"/>
<path d="M671.75 5V459.656H1137.88V683.927L1039.25 708.47C842.372 757.458 700.955 929.813 691.362 1132.47H471.133V677.812H5V453.541L103.633 428.999C300.511 380.011 441.927 207.655 451.521 5H671.75Z"/>
</mask>
<path d="M671.75 5H676.75V0H671.75V5ZM671.75 459.656H666.75V464.656H671.75V459.656ZM1137.88 459.656H1142.88V454.656H1137.88V459.656ZM1137.88 683.927L1139.09 688.779L1142.88 687.835V683.927H1137.88ZM1039.25 708.47L1040.46 713.322H1040.46L1039.25 708.47ZM691.362 1132.47V1137.47H696.131L696.357 1132.7L691.362 1132.47ZM471.133 1132.47H466.133V1137.47H471.133V1132.47ZM471.133 677.812H476.133V672.812H471.133V677.812ZM5 677.812H0V682.812H5V677.812ZM5 453.541L3.7927 448.689L0 449.633V453.541H5ZM103.633 428.999L104.84 433.851H104.84L103.633 428.999ZM451.521 5V0H446.752L446.526 4.76358L451.521 5ZM671.75 5H666.75V459.656H671.75H676.75V5H671.75ZM671.75 459.656V464.656H1137.88V459.656V454.656H671.75V459.656ZM1137.88 459.656H1132.88V683.927H1137.88H1142.88V459.656H1137.88ZM1137.88 683.927L1136.68 679.075L1038.04 703.618L1039.25 708.47L1040.46 713.322L1139.09 688.779L1137.88 683.927ZM1039.25 708.47L1038.04 703.618C839.021 753.139 696.065 927.371 686.368 1132.23L691.362 1132.47L696.357 1132.7C705.845 932.256 845.722 761.777 1040.46 713.322L1039.25 708.47ZM691.362 1132.47V1127.47H471.133V1132.47V1137.47H691.362V1132.47ZM471.133 1132.47H476.133V677.812H471.133H466.133V1132.47H471.133ZM471.133 677.812V672.812H5V677.812V682.812H471.133V677.812ZM5 677.812H10V453.541H5H0V677.812H5ZM5 453.541L6.2073 458.393L104.84 433.851L103.633 428.999L102.426 424.147L3.7927 448.689L5 453.541ZM103.633 428.999L104.84 433.851C303.862 384.329 446.817 210.097 456.515 5.23642L451.521 5L446.526 4.76358C437.037 205.212 297.161 375.692 102.425 424.147L103.633 428.999ZM451.521 5V10H671.75V5V0H451.521V5Z" fill="#FE1116" mask="url(#path-1-outside-1_76_710)"/>
</svg>
