<svg width="60" height="60" viewBox="0 0 60 60" fill="none" xmlns="http://www.w3.org/2000/svg">
<path d="M41.2439 20.1769C43.2018 20.1609 45.1233 20.7068 46.7804 21.7498C47.0628 21.9304 47.3885 22.0317 47.7235 22.0432C48.0585 22.0547 48.3905 21.976 48.6846 21.8152C48.9787 21.6544 49.2242 21.4175 49.3953 21.1293C49.5664 20.841 49.6569 20.5121 49.6574 20.1769V11.7635C49.6574 11.0197 49.3619 10.3063 48.8359 9.7804C48.31 9.25446 47.5967 8.95898 46.8529 8.95898H13.199C12.4552 8.95898 11.7419 9.25446 11.2159 9.7804C10.69 10.3063 10.3945 11.0197 10.3945 11.7635V49.1566C10.3945 49.9004 10.69 50.6138 11.2159 51.1397C11.7419 51.6656 12.4552 51.9611 13.199 51.9611H46.8529C47.5967 51.9611 48.31 51.6656 48.8359 51.1397C49.3619 50.6138 49.6574 49.9004 49.6574 49.1566V40.7432C49.657 40.4087 49.5669 40.0804 49.3964 39.7926C49.226 39.5047 48.9814 39.2679 48.6883 39.1068C48.3952 38.9457 48.0642 38.8661 47.7298 38.8765C47.3955 38.8868 47.07 38.9867 46.7874 39.1656C44.9178 40.3669 43.3239 40.8226 41.2813 40.7408H41.2439C38.5166 40.7408 35.9011 39.6574 33.9726 37.729C32.0442 35.8005 30.9608 33.185 30.9608 30.4577C30.9608 27.7305 32.0442 25.1149 33.9726 23.1865C35.9011 21.258 38.5166 20.1746 41.2439 20.1746V20.1769ZM29.0911 30.4601C29.0942 33.679 30.373 36.7655 32.6474 39.0434C34.9218 41.3212 38.0063 42.6048 41.2252 42.6128C43.6441 42.7063 45.6095 42.1454 47.7877 40.7432V49.1566C47.7877 49.4046 47.6892 49.6423 47.5139 49.8177C47.3386 49.993 47.1008 50.0915 46.8529 50.0915H13.199C12.9511 50.0915 12.7133 49.993 12.538 49.8177C12.3627 49.6423 12.2642 49.4046 12.2642 49.1566V11.7635C12.2642 11.5155 12.3627 11.2778 12.538 11.1024C12.7133 10.9271 12.9511 10.8286 13.199 10.8286H46.8529C47.1008 10.8286 47.3386 10.9271 47.5139 11.1024C47.6892 11.2778 47.7877 11.5155 47.7877 11.7635V20.1769C45.9443 19.0206 43.8254 18.3779 41.6503 18.3154C39.4751 18.253 37.3228 18.773 35.4162 19.8217C33.5095 20.8703 31.9177 22.4096 30.8057 24.28C29.6936 26.1504 29.1017 28.284 29.0911 30.4601Z" fill="#FE1116"/>
</svg>
