<svg width="60" height="60" viewBox="0 0 60 60" fill="none" xmlns="http://www.w3.org/2000/svg">
<path d="M48.7236 10.8281H11.3304C10.0907 10.8281 8.90185 11.3206 8.02528 12.1972C7.1487 13.0737 6.65625 14.2626 6.65625 15.5023V41.6775C6.65625 42.9171 7.1487 44.106 8.02528 44.9826C8.90185 45.8592 10.0907 46.3516 11.3304 46.3516H48.7236C49.9632 46.3516 51.1521 45.8592 52.0287 44.9826C52.9052 44.106 53.3977 42.9171 53.3977 41.6775V15.5023C53.3977 14.2626 52.9052 13.0737 52.0287 12.1972C51.1521 11.3206 49.9632 10.8281 48.7236 10.8281ZM51.528 41.6775C51.528 42.4213 51.2326 43.1346 50.7066 43.6606C50.1807 44.1865 49.4674 44.482 48.7236 44.482H11.3304C10.5866 44.482 9.87327 44.1865 9.34732 43.6606C8.82138 43.1346 8.52591 42.4213 8.52591 41.6775V15.5023C8.52591 14.7585 8.82138 14.0451 9.34732 13.5192C9.87327 12.9933 10.5866 12.6978 11.3304 12.6978H48.7236C49.4674 12.6978 50.1807 12.9933 50.7066 13.5192C51.2326 14.0451 51.528 14.7585 51.528 15.5023V41.6775ZM38.4404 52.8954C38.4404 53.1434 38.3419 53.3811 38.1666 53.5565C37.9913 53.7318 37.7535 53.8303 37.5056 53.8303H22.5483C22.3004 53.8303 22.0626 53.7318 21.8873 53.5565C21.712 53.3811 21.6135 53.1434 21.6135 52.8954C21.6135 52.6475 21.712 52.4097 21.8873 52.2344C22.0626 52.0591 22.3004 51.9606 22.5483 51.9606H37.5056C37.7535 51.9606 37.9913 52.0591 38.1666 52.2344C38.3419 52.4097 38.4404 52.6475 38.4404 52.8954ZM36.2973 26.0588C36.4728 26.2342 36.5713 26.4721 36.5713 26.7202C36.5713 26.9683 36.4728 27.2062 36.2973 27.3816C36.1219 27.557 35.884 27.6556 35.6359 27.6556C35.3879 27.6556 35.15 27.557 34.9746 27.3816L30.9618 23.3689V36.0685C30.9618 36.3164 30.8633 36.5542 30.688 36.7295C30.5127 36.9048 30.2749 37.0033 30.027 37.0033C29.779 37.0033 29.5413 36.9048 29.366 36.7295C29.1906 36.5542 29.0921 36.3164 29.0921 36.0685V23.3689L25.0794 27.3816C24.904 27.557 24.6661 27.6556 24.418 27.6556C24.1699 27.6556 23.932 27.557 23.7566 27.3816C23.5812 27.2062 23.4827 26.9683 23.4827 26.7202C23.4827 26.4721 23.5812 26.2342 23.7566 26.0588L29.3656 20.4499C29.4524 20.3629 29.5555 20.294 29.669 20.2469C29.7825 20.1999 29.9041 20.1757 30.027 20.1757C30.1498 20.1757 30.2715 20.1999 30.385 20.2469C30.4984 20.294 30.6015 20.3629 30.6884 20.4499L36.2973 26.0588Z" fill="#FE1116"/>
</svg>
