<svg width="283" height="299" viewBox="0 0 283 299" fill="none" xmlns="http://www.w3.org/2000/svg">
<mask id="path-1-outside-1_253_10085" maskUnits="userSpaceOnUse" x="84.0615" y="94.8174" width="116" height="115" fill="black">
<rect fill="white" x="84.0615" y="94.8174" width="116" height="115"/>
<path d="M152.059 95.8174V141.503H198.896V164.038L188.985 166.504C169.203 171.426 154.992 188.745 154.028 209.108H131.899V163.424H85.0615V140.889L94.9727 138.422C114.755 133.499 128.966 116.181 129.93 95.8174H152.059Z"/>
</mask>
<path d="M152.059 95.8174H152.561V95.315H152.059V95.8174ZM152.059 141.503H151.556V142.005H152.059V141.503ZM198.896 141.503H199.399V141.001H198.896V141.503ZM198.896 164.038L199.018 164.526L199.399 164.431V164.038H198.896ZM188.985 166.504L188.864 166.016L188.864 166.016L188.985 166.504ZM154.028 209.108V209.611H154.508L154.53 209.132L154.028 209.108ZM131.899 209.108H131.397V209.611H131.899V209.108ZM131.899 163.424H132.402V162.921H131.899V163.424ZM85.0615 163.424H84.5591V163.926H85.0615V163.424ZM85.0615 140.889L84.9402 140.401L84.5591 140.496V140.889H85.0615ZM94.9727 138.422L94.8513 137.934L94.8513 137.934L94.9727 138.422ZM129.93 95.8174V95.315H129.45L129.428 95.7936L129.93 95.8174ZM152.059 95.8174H151.556V141.503H152.059H152.561V95.8174H152.059ZM152.059 141.503V142.005H198.896V141.503V141.001H152.059V141.503ZM198.896 141.503H198.394V164.038H198.896H199.399V141.503H198.896ZM198.896 164.038L198.775 163.551L188.864 166.016L188.985 166.504L189.107 166.991L199.018 164.526L198.896 164.038ZM188.985 166.504L188.864 166.016C168.866 170.992 154.501 188.5 153.526 209.085L154.028 209.108L154.53 209.132C155.484 188.991 169.539 171.86 189.107 166.991L188.985 166.504ZM154.028 209.108V208.606H131.899V209.108V209.611H154.028V209.108ZM131.899 209.108H132.402V163.424H131.899H131.397V209.108H131.899ZM131.899 163.424V162.921H85.0615V163.424V163.926H131.899V163.424ZM85.0615 163.424H85.5639V140.889H85.0615H84.5591V163.424H85.0615ZM85.0615 140.889L85.1829 141.376L95.094 138.909L94.9727 138.422L94.8513 137.934L84.9402 140.401L85.0615 140.889ZM94.9727 138.422L95.094 138.909C115.092 133.933 129.457 116.426 130.432 95.8411L129.93 95.8174L129.428 95.7936C128.474 115.935 114.419 133.065 94.8513 137.934L94.9727 138.422ZM129.93 95.8174V96.3198H152.059V95.8174V95.315H129.93V95.8174Z" fill="white" mask="url(#path-1-outside-1_253_10085)"/>
<mask id="path-3-outside-2_253_10085" maskUnits="userSpaceOnUse" x="88.5986" y="97.8486" width="107" height="109" fill="black">
<rect fill="white" x="88.5986" y="97.8486" width="107" height="109"/>
<path d="M147.652 98.8486V144.517H195.064V160.947L187.582 162.29C166.471 166.081 150.889 184.125 150.216 205.563H134.478V160.499H89.5986V143.841L93.959 143.033C115.419 139.058 131.208 120.664 131.884 98.8486H147.652Z"/>
</mask>
<path d="M147.652 98.8486H148.019V98.4823H147.652V98.8486ZM147.652 144.517H147.286V144.883H147.652V144.517ZM195.064 144.517H195.431V144.15H195.064V144.517ZM195.064 160.947L195.129 161.308L195.431 161.254V160.947H195.064ZM187.582 162.29L187.517 161.929L187.517 161.93L187.582 162.29ZM150.216 205.563V205.93H150.571L150.582 205.575L150.216 205.563ZM134.478 205.563H134.111V205.93H134.478V205.563ZM134.478 160.499H134.844V160.133H134.478V160.499ZM89.5986 160.499H89.2323V160.865H89.5986V160.499ZM89.5986 143.841L89.5319 143.481L89.2323 143.536V143.841H89.5986ZM93.959 143.033L94.0257 143.393H94.0257L93.959 143.033ZM131.884 98.8486V98.4823H131.529L131.518 98.8373L131.884 98.8486ZM147.652 98.8486H147.286V144.517H147.652H148.019V98.8486H147.652ZM147.652 144.517V144.883H195.064V144.517V144.15H147.652V144.517ZM195.064 144.517H194.698V160.947H195.064H195.431V144.517H195.064ZM195.064 160.947L195 160.587L187.517 161.929L187.582 162.29L187.647 162.651L195.129 161.308L195.064 160.947ZM187.582 162.29L187.517 161.93C166.236 165.751 150.529 183.941 149.85 205.552L150.216 205.563L150.582 205.575C151.25 184.309 166.706 166.41 187.647 162.651L187.582 162.29ZM150.216 205.563V205.197H134.478V205.563V205.93H150.216V205.563ZM134.478 205.563H134.844V160.499H134.478H134.111V205.563H134.478ZM134.478 160.499V160.133H89.5986V160.499V160.865H134.478V160.499ZM89.5986 160.499H89.9649V143.841H89.5986H89.2323V160.499H89.5986ZM89.5986 143.841L89.6653 144.201L94.0257 143.393L93.959 143.033L93.8923 142.673L89.5319 143.481L89.5986 143.841ZM93.959 143.033L94.0257 143.393C115.656 139.387 131.569 120.847 132.25 98.86L131.884 98.8486L131.518 98.8373C130.847 120.48 115.183 138.73 93.8923 142.673L93.959 143.033ZM131.884 98.8486V99.2149H147.652V98.8486V98.4823H131.884V98.8486Z" fill="white" mask="url(#path-3-outside-2_253_10085)"/>
<mask id="path-5-outside-3_253_10085" maskUnits="userSpaceOnUse" x="92.7744" y="102.766" width="99" height="99" fill="black">
<rect fill="white" x="92.7744" y="102.766" width="99" height="99"/>
<path d="M144.604 103.766V147.256H191.294V158.903L184.605 160.142C164.701 163.827 149.719 180.368 148.016 200.539H138.157V158.012H93.7744V144.807L96.7793 144.325C117.059 141.072 132.413 124.257 133.812 103.766H144.604Z"/>
</mask>
<path d="M144.604 103.766H144.914V103.456H144.604V103.766ZM144.604 147.256H144.295V147.565H144.604V147.256ZM191.294 147.256H191.603V146.946H191.294V147.256ZM191.294 158.903L191.35 159.208L191.603 159.161V158.903H191.294ZM184.605 160.142L184.549 159.837H184.549L184.605 160.142ZM148.016 200.539V200.848H148.3L148.324 200.565L148.016 200.539ZM138.157 200.539H137.848V200.848H138.157V200.539ZM138.157 158.012H138.467V157.702H138.157V158.012ZM93.7744 158.012H93.465V158.321H93.7744V158.012ZM93.7744 144.807L93.7255 144.501L93.465 144.543V144.807H93.7744ZM96.7793 144.325L96.8282 144.631L96.8283 144.631L96.7793 144.325ZM133.812 103.766V103.456H133.524L133.504 103.745L133.812 103.766ZM144.604 103.766H144.295V147.256H144.604H144.914V103.766H144.604ZM144.604 147.256V147.565H191.294V147.256V146.946H144.604V147.256ZM191.294 147.256H190.985V158.903H191.294H191.603V147.256H191.294ZM191.294 158.903L191.238 158.599L184.549 159.837L184.605 160.142L184.662 160.446L191.35 159.208L191.294 158.903ZM184.605 160.142L184.549 159.837C164.508 163.548 149.422 180.203 147.707 200.513L148.016 200.539L148.324 200.565C150.015 180.533 164.894 164.106 184.662 160.446L184.605 160.142ZM148.016 200.539V200.23H138.157V200.539V200.848H148.016V200.539ZM138.157 200.539H138.467V158.012H138.157H137.848V200.539H138.157ZM138.157 158.012V157.702H93.7744V158.012V158.321H138.157V158.012ZM93.7744 158.012H94.0838V144.807H93.7744H93.465V158.012H93.7744ZM93.7744 144.807L93.8234 145.112L96.8282 144.631L96.7793 144.325L96.7304 144.02L93.7255 144.501L93.7744 144.807ZM96.7793 144.325L96.8283 144.631C117.25 141.355 132.712 124.422 134.121 103.787L133.812 103.766L133.504 103.745C132.114 124.092 116.868 140.79 96.7303 144.02L96.7793 144.325ZM133.812 103.766V104.075H144.604V103.766V103.456H133.812V103.766Z" fill="white" mask="url(#path-5-outside-3_253_10085)"/>
<path d="M198.896 152.527H273.172" stroke="white" stroke-width="0.269964"/>
<path d="M198.896 146.1H273.172" stroke="white" stroke-width="0.269964"/>
<path d="M198.896 158.312H273.172" stroke="white" stroke-width="0.269964"/>
<path d="M282.863 297.927V0.134766H0.134766V297.927" stroke="white" stroke-width="0.269964"/>
<path d="M273.171 291.745V5.91992H8.15527V291.745" stroke="white" stroke-width="0.269964"/>
<path d="M0.134766 298.159L282.863 298.159" stroke="white" stroke-width="0.269964"/>
<path d="M6.39551 291.731H273.339" stroke="white" stroke-width="0.269964"/>
<path d="M140.964 95.8174V5.92015" stroke="white" stroke-width="0.269964"/>
<path d="M134.536 95.8174V5.92015" stroke="white" stroke-width="0.269964"/>
<path d="M146.748 95.8174V5.92015" stroke="white" stroke-width="0.269964"/>
<path d="M142.301 291.731V209.108" stroke="white" stroke-width="0.269964"/>
<path d="M135.872 291.731V209.108" stroke="white" stroke-width="0.269964"/>
<path d="M148.085 291.731V209.108" stroke="white" stroke-width="0.269964"/>
<path d="M8.15527 152.227H85.061" stroke="white" stroke-width="0.269964"/>
<path d="M8.15527 145.799H85.061" stroke="white" stroke-width="0.269964"/>
<path d="M8.15527 158.012H85.061" stroke="white" stroke-width="0.269964"/>
</svg>
